<svg width="233" height="63" viewBox="0 0 233 63" fill="none" xmlns="http://www.w3.org/2000/svg">
<rect x="1" y="1" width="230.902" height="61" rx="30.5" stroke="url(#paint0_linear_2076_1999)" stroke-width="2"/>
<path d="M33.4254 38.5V26.58H41.3454V28.5H35.6014V31.556H41.0254V33.476H35.6014V36.58H41.3454V38.5H33.4254ZM41.9811 38.5L45.0211 34.132L41.9651 29.796H44.4291L46.8131 33.316H45.7091L48.0931 29.796H50.5411L47.5011 34.132L50.5251 38.5H48.0771L45.7251 34.996H46.7971L44.4451 38.5H41.9811ZM51.6869 41.7V29.796H53.6549V31.524L53.4629 31.092C53.7616 30.6227 54.1669 30.26 54.6789 30.004C55.1909 29.7373 55.7829 29.604 56.4549 29.604C57.2763 29.604 58.0176 29.8067 58.6789 30.212C59.3403 30.6173 59.8629 31.1613 60.2469 31.844C60.6416 32.5267 60.8389 33.2947 60.8389 34.148C60.8389 34.9907 60.6469 35.7587 60.2629 36.452C59.8789 37.1453 59.3563 37.6947 58.6949 38.1C58.0336 38.4947 57.2816 38.692 56.4389 38.692C55.8096 38.692 55.2283 38.5693 54.6949 38.324C54.1723 38.068 53.7563 37.7053 53.4469 37.236L53.7829 36.82V41.7H51.6869ZM56.1989 36.772C56.6789 36.772 57.1056 36.66 57.4789 36.436C57.8523 36.212 58.1403 35.9027 58.3429 35.508C58.5563 35.1133 58.6629 34.66 58.6629 34.148C58.6629 33.636 58.5563 33.188 58.3429 32.804C58.1403 32.4093 57.8523 32.1 57.4789 31.876C57.1056 31.6413 56.6789 31.524 56.1989 31.524C55.7403 31.524 55.3243 31.636 54.9509 31.86C54.5883 32.084 54.3003 32.3987 54.0869 32.804C53.8843 33.1987 53.7829 33.6467 53.7829 34.148C53.7829 34.66 53.8843 35.1133 54.0869 35.508C54.3003 35.9027 54.5883 36.212 54.9509 36.436C55.3243 36.66 55.7403 36.772 56.1989 36.772ZM62.4369 38.5V26.388H64.5329V38.5H62.4369ZM70.7242 38.692C69.8709 38.692 69.0922 38.4947 68.3882 38.1C67.6949 37.7053 67.1402 37.1667 66.7242 36.484C66.3189 35.8013 66.1162 35.0227 66.1162 34.148C66.1162 33.2733 66.3189 32.4947 66.7242 31.812C67.1402 31.1293 67.6949 30.5907 68.3882 30.196C69.0815 29.8013 69.8602 29.604 70.7242 29.604C71.5775 29.604 72.3509 29.8013 73.0442 30.196C73.7375 30.5907 74.2869 31.1293 74.6922 31.812C75.1082 32.484 75.3162 33.2627 75.3162 34.148C75.3162 35.0227 75.1082 35.8013 74.6922 36.484C74.2762 37.1667 73.7215 37.7053 73.0282 38.1C72.3349 38.4947 71.5669 38.692 70.7242 38.692ZM70.7242 36.772C71.1935 36.772 71.6042 36.66 71.9562 36.436C72.3189 36.212 72.6015 35.9027 72.8042 35.508C73.0175 35.1027 73.1242 34.6493 73.1242 34.148C73.1242 33.636 73.0175 33.188 72.8042 32.804C72.6015 32.4093 72.3189 32.1 71.9562 31.876C71.6042 31.6413 71.1935 31.524 70.7242 31.524C70.2442 31.524 69.8229 31.6413 69.4602 31.876C69.0975 32.1 68.8095 32.4093 68.5962 32.804C68.3935 33.188 68.2922 33.636 68.2922 34.148C68.2922 34.6493 68.3935 35.1027 68.5962 35.508C68.8095 35.9027 69.0975 36.212 69.4602 36.436C69.8229 36.66 70.2442 36.772 70.7242 36.772ZM76.9057 38.5V29.796H78.8737V31.732L78.7137 31.444C78.9164 30.7933 79.231 30.34 79.6577 30.084C80.095 29.828 80.6177 29.7 81.2257 29.7H81.7377V31.556H80.9857C80.3884 31.556 79.9084 31.7427 79.5457 32.116C79.183 32.4787 79.0017 32.9907 79.0017 33.652V38.5H76.9057ZM87.0181 38.692C86.1221 38.692 85.3381 38.4893 84.6661 38.084C83.9941 37.6787 83.4714 37.1293 83.0981 36.436C82.7247 35.7427 82.5381 34.9747 82.5381 34.132C82.5381 33.2573 82.7247 32.484 83.0981 31.812C83.4821 31.1293 83.9994 30.5907 84.6501 30.196C85.3114 29.8013 86.0474 29.604 86.8581 29.604C87.5407 29.604 88.1381 29.716 88.6501 29.94C89.1727 30.164 89.6154 30.4733 89.9781 30.868C90.3407 31.2627 90.6181 31.716 90.8101 32.228C91.0021 32.7293 91.0981 33.2733 91.0981 33.86C91.0981 34.0093 91.0874 34.164 91.0661 34.324C91.0554 34.484 91.0287 34.6227 90.9861 34.74H84.2661V33.14H89.8021L88.8101 33.892C88.9061 33.4013 88.8794 32.964 88.7301 32.58C88.5914 32.196 88.3567 31.892 88.0261 31.668C87.7061 31.444 87.3167 31.332 86.8581 31.332C86.4207 31.332 86.0314 31.444 85.6901 31.668C85.3487 31.8813 85.0874 32.2013 84.9061 32.628C84.7354 33.044 84.6714 33.5507 84.7141 34.148C84.6714 34.6813 84.7407 35.156 84.9221 35.572C85.1141 35.9773 85.3914 36.292 85.7541 36.516C86.1274 36.74 86.5541 36.852 87.0341 36.852C87.5141 36.852 87.9194 36.7507 88.2501 36.548C88.5914 36.3453 88.8581 36.0733 89.0501 35.732L90.7461 36.564C90.5754 36.98 90.3087 37.348 89.9461 37.668C89.5834 37.988 89.1514 38.2387 88.6501 38.42C88.1594 38.6013 87.6154 38.692 87.0181 38.692ZM95.7067 38.5V26.58H103.659V28.5H97.8827V31.796H102.939V33.716H97.8827V38.5H95.7067ZM108.846 38.692C107.95 38.692 107.166 38.4893 106.494 38.084C105.822 37.6787 105.3 37.1293 104.926 36.436C104.553 35.7427 104.366 34.9747 104.366 34.132C104.366 33.2573 104.553 32.484 104.926 31.812C105.31 31.1293 105.828 30.5907 106.478 30.196C107.14 29.8013 107.876 29.604 108.686 29.604C109.369 29.604 109.966 29.716 110.478 29.94C111.001 30.164 111.444 30.4733 111.806 30.868C112.169 31.2627 112.446 31.716 112.638 32.228C112.83 32.7293 112.926 33.2733 112.926 33.86C112.926 34.0093 112.916 34.164 112.894 34.324C112.884 34.484 112.857 34.6227 112.814 34.74H106.094V33.14H111.63L110.638 33.892C110.734 33.4013 110.708 32.964 110.558 32.58C110.42 32.196 110.185 31.892 109.854 31.668C109.534 31.444 109.145 31.332 108.686 31.332C108.249 31.332 107.86 31.444 107.518 31.668C107.177 31.8813 106.916 32.2013 106.734 32.628C106.564 33.044 106.5 33.5507 106.542 34.148C106.5 34.6813 106.569 35.156 106.75 35.572C106.942 35.9773 107.22 36.292 107.582 36.516C107.956 36.74 108.382 36.852 108.862 36.852C109.342 36.852 109.748 36.7507 110.078 36.548C110.42 36.3453 110.686 36.0733 110.878 35.732L112.574 36.564C112.404 36.98 112.137 37.348 111.774 37.668C111.412 37.988 110.98 38.2387 110.478 38.42C109.988 38.6013 109.444 38.692 108.846 38.692ZM117.124 38.692C116.516 38.692 115.988 38.5907 115.54 38.388C115.092 38.1853 114.745 37.8973 114.5 37.524C114.254 37.14 114.132 36.6973 114.132 36.196C114.132 35.716 114.238 35.2893 114.452 34.916C114.665 34.532 114.996 34.212 115.444 33.956C115.892 33.7 116.457 33.5187 117.14 33.412L119.988 32.948V34.548L117.54 34.964C117.124 35.0387 116.814 35.172 116.612 35.364C116.409 35.556 116.308 35.8067 116.308 36.116C116.308 36.4147 116.42 36.6547 116.644 36.836C116.878 37.0067 117.166 37.092 117.508 37.092C117.945 37.092 118.329 37.0013 118.66 36.82C119.001 36.628 119.262 36.3667 119.444 36.036C119.636 35.7053 119.732 35.3427 119.732 34.948V32.708C119.732 32.3347 119.582 32.0253 119.284 31.78C118.996 31.524 118.612 31.396 118.132 31.396C117.684 31.396 117.284 31.5187 116.932 31.764C116.59 31.9987 116.34 32.3133 116.18 32.708L114.468 31.876C114.638 31.4173 114.905 31.0227 115.268 30.692C115.641 30.3507 116.078 30.084 116.58 29.892C117.081 29.7 117.625 29.604 118.212 29.604C118.926 29.604 119.556 29.7373 120.1 30.004C120.644 30.26 121.065 30.6227 121.364 31.092C121.673 31.5507 121.828 32.0893 121.828 32.708V38.5H119.844V37.012L120.292 36.98C120.068 37.3533 119.801 37.668 119.492 37.924C119.182 38.1693 118.83 38.3613 118.436 38.5C118.041 38.628 117.604 38.692 117.124 38.692ZM127.577 38.596C126.595 38.596 125.833 38.3293 125.289 37.796C124.755 37.252 124.489 36.4893 124.489 35.508V31.668H122.985V29.796H123.145C123.571 29.796 123.902 29.684 124.137 29.46C124.371 29.236 124.489 28.9107 124.489 28.484V27.812H126.585V29.796H128.585V31.668H126.585V35.396C126.585 35.684 126.633 35.9293 126.729 36.132C126.835 36.3347 126.995 36.4893 127.209 36.596C127.433 36.7027 127.715 36.756 128.057 36.756C128.131 36.756 128.217 36.7507 128.313 36.74C128.419 36.7293 128.521 36.7187 128.617 36.708V38.5C128.467 38.5213 128.297 38.5427 128.105 38.564C127.913 38.5853 127.737 38.596 127.577 38.596ZM133.322 38.692C132.65 38.692 132.064 38.5427 131.562 38.244C131.072 37.9453 130.693 37.5293 130.426 36.996C130.17 36.4627 130.042 35.8387 130.042 35.124V29.796H132.138V34.948C132.138 35.3107 132.208 35.6307 132.346 35.908C132.496 36.1747 132.704 36.388 132.97 36.548C133.248 36.6973 133.557 36.772 133.898 36.772C134.24 36.772 134.544 36.6973 134.81 36.548C135.077 36.388 135.285 36.1693 135.434 35.892C135.584 35.6147 135.658 35.284 135.658 34.9V29.796H137.754V38.5H135.77V36.788L135.946 37.092C135.744 37.6253 135.408 38.0253 134.938 38.292C134.48 38.5587 133.941 38.692 133.322 38.692ZM139.703 38.5V29.796H141.671V31.732L141.511 31.444C141.713 30.7933 142.028 30.34 142.455 30.084C142.892 29.828 143.415 29.7 144.023 29.7H144.535V31.556H143.783C143.185 31.556 142.705 31.7427 142.343 32.116C141.98 32.4787 141.799 32.9907 141.799 33.652V38.5H139.703ZM149.815 38.692C148.919 38.692 148.135 38.4893 147.463 38.084C146.791 37.6787 146.268 37.1293 145.895 36.436C145.522 35.7427 145.335 34.9747 145.335 34.132C145.335 33.2573 145.522 32.484 145.895 31.812C146.279 31.1293 146.796 30.5907 147.447 30.196C148.108 29.8013 148.844 29.604 149.655 29.604C150.338 29.604 150.935 29.716 151.447 29.94C151.97 30.164 152.412 30.4733 152.775 30.868C153.138 31.2627 153.415 31.716 153.607 32.228C153.799 32.7293 153.895 33.2733 153.895 33.86C153.895 34.0093 153.884 34.164 153.863 34.324C153.852 34.484 153.826 34.6227 153.783 34.74H147.063V33.14H152.599L151.607 33.892C151.703 33.4013 151.676 32.964 151.527 32.58C151.388 32.196 151.154 31.892 150.823 31.668C150.503 31.444 150.114 31.332 149.655 31.332C149.218 31.332 148.828 31.444 148.487 31.668C148.146 31.8813 147.884 32.2013 147.703 32.628C147.532 33.044 147.468 33.5507 147.511 34.148C147.468 34.6813 147.538 35.156 147.719 35.572C147.911 35.9773 148.188 36.292 148.551 36.516C148.924 36.74 149.351 36.852 149.831 36.852C150.311 36.852 150.716 36.7507 151.047 36.548C151.388 36.3453 151.655 36.0733 151.847 35.732L153.543 36.564C153.372 36.98 153.106 37.348 152.743 37.668C152.38 37.988 151.948 38.2387 151.447 38.42C150.956 38.6013 150.412 38.692 149.815 38.692ZM158.796 38.692C157.868 38.692 157.057 38.4733 156.364 38.036C155.681 37.588 155.212 36.9853 154.956 36.228L156.524 35.476C156.748 35.9667 157.057 36.3507 157.452 36.628C157.857 36.9053 158.305 37.044 158.796 37.044C159.18 37.044 159.484 36.9587 159.708 36.788C159.932 36.6173 160.044 36.3933 160.044 36.116C160.044 35.9453 159.996 35.8067 159.9 35.7C159.814 35.5827 159.692 35.4867 159.532 35.412C159.382 35.3267 159.217 35.2573 159.036 35.204L157.612 34.804C156.876 34.5907 156.316 34.2653 155.932 33.828C155.558 33.3907 155.372 32.8733 155.372 32.276C155.372 31.7427 155.505 31.2787 155.772 30.884C156.049 30.4787 156.428 30.164 156.908 29.94C157.398 29.716 157.958 29.604 158.588 29.604C159.409 29.604 160.134 29.8013 160.764 30.196C161.393 30.5907 161.841 31.1453 162.108 31.86L160.508 32.612C160.358 32.2173 160.108 31.9027 159.756 31.668C159.404 31.4333 159.009 31.316 158.572 31.316C158.22 31.316 157.942 31.396 157.74 31.556C157.537 31.716 157.436 31.924 157.436 32.18C157.436 32.34 157.478 32.4787 157.564 32.596C157.649 32.7133 157.766 32.8093 157.916 32.884C158.076 32.9587 158.257 33.028 158.46 33.092L159.852 33.508C160.566 33.7213 161.116 34.0413 161.5 34.468C161.894 34.8947 162.092 35.4173 162.092 36.036C162.092 36.5587 161.953 37.0227 161.676 37.428C161.398 37.8227 161.014 38.132 160.524 38.356C160.033 38.58 159.457 38.692 158.796 38.692Z" fill="white"/>
<g clip-path="url(#clip0_2076_1999)">
<g clip-path="url(#clip1_2076_1999)">
<path d="M184.291 24.4372L183.612 38.563" stroke="white" stroke-width="2" stroke-linecap="round" stroke-linejoin="round"/>
<path d="M191.015 31.8397L183.612 38.563L176.889 31.1604" stroke="white" stroke-width="2" stroke-linecap="round" stroke-linejoin="round"/>
</g>
</g>
<defs>
<linearGradient id="paint0_linear_2076_1999" x1="0" y1="31.5" x2="232.902" y2="31.5" gradientUnits="userSpaceOnUse">
<stop stop-color="white"/>
<stop offset="0.380208" stop-color="#FFE589"/>
<stop offset="0.758263" stop-color="#294D2C"/>
<stop offset="1" stop-color="#C9A732"/>
</linearGradient>
<clipPath id="clip0_2076_1999">
<rect x="167" y="14.5491" width="33.9019" height="33.9019" rx="16.951" fill="white"/>
</clipPath>
<clipPath id="clip1_2076_1999">
<rect width="24" height="24" fill="white" transform="translate(200.902 32.3152) rotate(137.753)"/>
</clipPath>
</defs>
</svg>
