<svg width="49" height="48" viewBox="0 0 49 48" fill="none" xmlns="http://www.w3.org/2000/svg">
<rect x="0.5" width="48" height="48" rx="6" fill="url(#paint0_linear_96_4861)" fill-opacity="0.7"/>
<path opacity="0.2" fill-rule="evenodd" clip-rule="evenodd" d="M27.9445 32.5475L33.8737 21.8735C35.0389 19.7759 31.8937 18.0275 30.7273 20.1263L25.7605 29.0639L21.4237 25.5947C19.5493 24.0947 17.3005 26.9063 19.1749 28.4051L25.0621 33.1151C25.1281 33.1751 25.1989 33.2291 25.2733 33.2795C25.7377 33.6119 26.2201 33.6899 26.6533 33.5951C27.0901 33.5183 27.5065 33.2639 27.8101 32.7791C27.8593 32.7059 27.9049 32.6279 27.9421 32.5475" fill="white"/>
<path d="M30.4248 18.8912L24.4248 29.6912C24.036 30.3908 22.9872 29.8076 23.376 29.108L29.376 18.308C29.7648 17.6084 30.8136 18.1916 30.4248 18.8912Z" fill="white"/>
<path d="M18.2746 24.132L24.2746 28.932C24.8986 29.4312 24.1498 30.3684 23.5258 29.868L17.5258 25.068C16.9018 24.5688 17.6506 23.6316 18.2746 24.132Z" fill="white"/>
<defs>
<linearGradient id="paint0_linear_96_4861" x1="1.83043" y1="13.5738" x2="37.165" y2="13.9709" gradientUnits="userSpaceOnUse">
<stop stop-color="#153A19"/>
<stop offset="1" stop-color="#00771A"/>
</linearGradient>
</defs>
</svg>
