<svg width="49" height="48" viewBox="0 0 49 48" fill="none" xmlns="http://www.w3.org/2000/svg">
<rect x="0.5" width="48" height="48" rx="6" fill="url(#paint0_linear_97_4963)" fill-opacity="0.7"/>
<g clip-path="url(#clip0_97_4963)">
<g opacity="0.2">
<path d="M18.044 22.1946C17.7836 21.1242 18.9812 20.2974 19.8896 20.9214L22.0856 22.4286C22.2195 22.5207 22.3707 22.5846 22.53 22.6165C22.6893 22.6483 22.8535 22.6475 23.0125 22.6141C23.1715 22.5807 23.322 22.5153 23.455 22.4219C23.5879 22.3286 23.7006 22.2092 23.786 22.071L25.2788 19.6518C25.3863 19.4776 25.5366 19.3339 25.7153 19.2341C25.8941 19.1344 26.0954 19.082 26.3 19.082C26.5047 19.082 26.706 19.1344 26.8848 19.2341C27.0635 19.3339 27.2138 19.4776 27.3212 19.6518L28.814 22.071C28.8995 22.2092 29.0121 22.3286 29.1451 22.4219C29.2781 22.5153 29.4286 22.5807 29.5876 22.6141C29.7466 22.6475 29.9108 22.6483 30.0701 22.6165C30.2294 22.5846 30.3806 22.5207 30.5144 22.4286L32.7104 20.9214C33.6188 20.2974 34.8164 21.1242 34.556 22.1934L32.876 29.0838C32.8124 29.3449 32.6629 29.577 32.4517 29.743C32.2404 29.909 31.9795 29.9993 31.7108 29.9994H20.888C20.6194 29.9993 20.3585 29.909 20.1472 29.743C19.936 29.577 19.7865 29.3449 19.7228 29.0838L18.044 22.1946Z" fill="white"/>
<path fill-rule="evenodd" clip-rule="evenodd" d="M31.49 24.6378C30.684 25.0549 29.7501 25.1521 28.8754 24.91C28.0007 24.6679 27.2498 24.1044 26.7729 23.3322L26.3 22.5666L25.8273 23.3322C25.3504 24.1041 24.5996 24.6674 23.7252 24.9095C22.8508 25.1516 21.9172 25.0545 21.1113 24.6378L21.8312 27.5994H30.7676L31.49 24.6378ZM19.8896 20.9214C18.9812 20.2974 17.7836 21.1242 18.044 22.1934L19.724 29.0838C19.7877 29.3447 19.9369 29.5766 20.148 29.7426C20.359 29.9086 20.6196 29.999 20.888 29.9994H31.7096C31.9783 29.9993 32.2392 29.909 32.4505 29.743C32.6617 29.577 32.8112 29.3449 32.8749 29.0838L34.5548 22.1946C34.8153 21.1242 33.6176 20.2974 32.7092 20.9214L30.5132 22.4286C30.3794 22.5207 30.2282 22.5846 30.0689 22.6165C29.9096 22.6483 29.7454 22.6475 29.5864 22.6141C29.4274 22.5807 29.2769 22.5153 29.1439 22.4219C29.011 22.3286 28.8983 22.2092 28.8128 22.071L27.3201 19.6518C27.2126 19.4776 27.0623 19.3339 26.8836 19.2341C26.7048 19.1344 26.5035 19.082 26.2989 19.082C26.0942 19.082 25.8929 19.1344 25.7141 19.2341C25.5354 19.3339 25.3851 19.4776 25.2776 19.6518L23.786 22.071C23.7006 22.2092 23.5879 22.3286 23.455 22.4219C23.322 22.5153 23.1715 22.5807 23.0125 22.6141C22.8535 22.6475 22.6893 22.6483 22.53 22.6165C22.3707 22.5846 22.2195 22.5207 22.0856 22.4286L19.8896 20.9214Z" fill="white"/>
<path d="M27.4996 16.7996C27.4996 17.1179 27.3732 17.4231 27.1481 17.6481C26.9231 17.8732 26.6179 17.9996 26.2996 17.9996C25.9813 17.9996 25.6761 17.8732 25.4511 17.6481C25.226 17.4231 25.0996 17.1179 25.0996 16.7996C25.0996 16.4813 25.226 16.1761 25.4511 15.9511C25.6761 15.726 25.9813 15.5996 26.2996 15.5996C26.6179 15.5996 26.9231 15.726 27.1481 15.9511C27.3732 16.1761 27.4996 16.4813 27.4996 16.7996ZM36.4996 19.1996C36.4996 19.5179 36.3732 19.8231 36.1481 20.0481C35.9231 20.2732 35.6179 20.3996 35.2996 20.3996C34.9813 20.3996 34.6761 20.2732 34.4511 20.0481C34.226 19.8231 34.0996 19.5179 34.0996 19.1996C34.0996 18.8813 34.226 18.5761 34.4511 18.3511C34.6761 18.126 34.9813 17.9996 35.2996 17.9996C35.6179 17.9996 35.9231 18.126 36.1481 18.3511C36.3732 18.5761 36.4996 18.8813 36.4996 19.1996Z" fill="white"/>
<path fill-rule="evenodd" clip-rule="evenodd" d="M20 31.7994C20 31.5607 20.0948 31.3318 20.2636 31.163C20.4324 30.9942 20.6613 30.8994 20.9 30.8994H31.3844C31.6231 30.8994 31.852 30.9942 32.0208 31.163C32.1896 31.3318 32.2844 31.5607 32.2844 31.7994C32.2844 32.0381 32.1896 32.267 32.0208 32.4358C31.852 32.6046 31.6231 32.6994 31.3844 32.6994H20.9C20.6613 32.6994 20.4324 32.6046 20.2636 32.4358C20.0948 32.267 20 32.0381 20 31.7994Z" fill="white"/>
<path d="M18.4996 19.2C18.4996 19.5183 18.3732 19.8235 18.1481 20.0485C17.9231 20.2736 17.6179 20.4 17.2996 20.4C16.9813 20.4 16.6761 20.2736 16.4511 20.0485C16.226 19.8235 16.0996 19.5183 16.0996 19.2C16.0996 18.8817 16.226 18.5765 16.4511 18.3515C16.6761 18.1264 16.9813 18 17.2996 18C17.6179 18 17.9231 18.1264 18.1481 18.3515C18.3732 18.5765 18.4996 18.8817 18.4996 19.2Z" fill="white"/>
</g>
<path fill-rule="evenodd" clip-rule="evenodd" d="M30.3752 28.5809L32.1932 21.6617L29.5364 23.3537C29.0066 23.6915 28.3655 23.808 27.7507 23.6783C27.136 23.5487 26.5966 23.1831 26.2484 22.6601L24.5 20.0333L22.7504 22.6613C22.402 23.1841 21.8625 23.5494 21.2478 23.6789C20.633 23.8083 19.992 23.6916 19.4624 23.3537L16.808 21.6617L18.626 28.5809H30.3752ZM17.4512 20.6489C16.5308 20.0621 15.368 20.9105 15.6452 21.9665L17.4644 28.8857C17.5317 29.1421 17.6821 29.369 17.892 29.531C18.102 29.693 18.3596 29.7808 18.6248 29.7809H30.3752C30.6403 29.7808 30.898 29.693 31.1079 29.531C31.3179 29.369 31.4682 29.1421 31.5356 28.8857L33.3548 21.9665C33.6308 20.9105 32.4692 20.0633 31.5488 20.6489L28.892 22.3409C28.6272 22.5099 28.3068 22.5684 27.9994 22.5037C27.692 22.4391 27.4223 22.2566 27.248 21.9953L25.4984 19.3673C25.3888 19.2029 25.2403 19.0682 25.0662 18.975C24.892 18.8818 24.6975 18.833 24.5 18.833C24.3024 18.833 24.108 18.8818 23.9338 18.975C23.7596 19.0682 23.6112 19.2029 23.5016 19.3673L21.752 21.9953C21.5779 22.2568 21.3082 22.4396 21.0008 22.5044C20.6934 22.5692 20.3729 22.511 20.108 22.3421L17.4512 20.6489Z" fill="white"/>
<path d="M25.6328 16.7334C25.6331 17.0341 25.514 17.3227 25.3015 17.5356C25.0891 17.7485 24.8008 17.8683 24.5 17.8686C24.1993 17.8689 23.9107 17.7497 23.6978 17.5373C23.4849 17.3249 23.3651 17.0365 23.3648 16.7358C23.3645 16.435 23.4837 16.1465 23.6961 15.9336C23.9086 15.7207 24.1969 15.6009 24.4976 15.6006C24.7984 15.6003 25.0869 15.7194 25.2998 15.9319C25.5127 16.1443 25.6325 16.4326 25.6328 16.7334ZM34.7 19.0026C34.7002 19.3033 34.5809 19.5918 34.3683 19.8046C34.1558 20.0174 33.8674 20.137 33.5666 20.1372C33.2659 20.1373 32.9774 20.018 32.7646 19.8055C32.5518 19.5929 32.4322 19.3045 32.432 19.0038C32.432 18.703 32.5515 18.4146 32.7642 18.2019C32.9768 17.9893 33.2653 17.8698 33.566 17.8698C33.8668 17.8698 34.1552 17.9893 34.3679 18.2019C34.5806 18.4146 34.7 18.7018 34.7 19.0026ZM16.5668 19.0026C16.5669 19.1515 16.5377 19.299 16.4807 19.4366C16.4238 19.5742 16.3404 19.6993 16.2351 19.8046C16.1299 19.91 16.0049 19.9936 15.8673 20.0506C15.7298 20.1077 15.5823 20.1371 15.4334 20.1372C15.2845 20.1373 15.137 20.108 14.9994 20.0511C14.8618 19.9942 14.7368 19.9107 14.6314 19.8055C14.526 19.7002 14.4424 19.5753 14.3854 19.4377C14.3283 19.3002 14.2989 19.1527 14.2988 19.0038C14.2988 18.703 14.4183 18.4146 14.631 18.2019C14.8436 17.9893 15.1321 17.8698 15.4328 17.8698C15.7336 17.8698 16.022 17.9893 16.2347 18.2019C16.4474 18.4146 16.5668 18.7018 16.5668 19.0026Z" fill="white"/>
<path fill-rule="evenodd" clip-rule="evenodd" d="M18.7998 31.1996C18.7998 31.0405 18.863 30.8879 18.9755 30.7753C19.0881 30.6628 19.2407 30.5996 19.3998 30.5996H29.8842C30.0433 30.5996 30.1959 30.6628 30.3085 30.7753C30.421 30.8879 30.4842 31.0405 30.4842 31.1996C30.4842 31.3587 30.421 31.5114 30.3085 31.6239C30.1959 31.7364 30.0433 31.7996 29.8842 31.7996H19.3998C19.2407 31.7996 19.0881 31.7364 18.9755 31.6239C18.863 31.5114 18.7998 31.3587 18.7998 31.1996Z" fill="white"/>
</g>
<defs>
<linearGradient id="paint0_linear_97_4963" x1="1.83043" y1="13.5738" x2="37.165" y2="13.9709" gradientUnits="userSpaceOnUse">
<stop stop-color="#153A19"/>
<stop offset="1" stop-color="#00771A"/>
</linearGradient>
<clipPath id="clip0_97_4963">
<rect width="24" height="24" fill="white" transform="translate(12.5 12)"/>
</clipPath>
</defs>
</svg>
