<svg width="48" height="48" viewBox="0 0 48 48" fill="none" xmlns="http://www.w3.org/2000/svg">
<rect width="48" height="48" rx="6" fill="url(#paint0_linear_97_4935)" fill-opacity="0.7"/>
<g opacity="0.2">
<path fill-rule="evenodd" clip-rule="evenodd" d="M22.0768 18.8406C21.4156 19.3362 21.1168 19.9302 21.1168 20.4846C21.1168 21.0402 21.4156 21.6342 22.0768 22.131C22.7392 22.6278 23.7088 22.971 24.8308 22.971C25.1491 22.971 25.4543 23.0974 25.6793 23.3225C25.9044 23.5475 26.0308 23.8527 26.0308 24.171C26.0308 24.4892 25.9044 24.7945 25.6793 25.0195C25.4543 25.2446 25.1491 25.371 24.8308 25.371C23.2396 25.371 21.7528 24.8886 20.6368 24.051C19.5208 23.2134 18.7168 21.9654 18.7168 20.4858C18.7168 19.005 19.5208 17.757 20.6368 16.9194C21.7528 16.083 23.2408 15.6006 24.8308 15.6006C27.2944 15.6006 29.6236 16.7802 30.55 18.7446C30.6857 19.0326 30.7015 19.3628 30.5938 19.6624C30.4861 19.9621 30.2638 20.2066 29.9758 20.3424C29.8332 20.4096 29.6787 20.4481 29.5212 20.4556C29.3638 20.4631 29.2063 20.4395 29.058 20.3862C28.7583 20.2785 28.5137 20.0562 28.378 19.7682C27.958 18.8718 26.6476 18.0006 24.832 18.0006C23.71 18.0006 22.7392 18.3438 22.0768 18.8406Z" fill="white"/>
<path fill-rule="evenodd" clip-rule="evenodd" d="M27.1884 29.4998C27.8496 29.0042 28.1472 28.4102 28.1472 27.8558C28.1472 27.3002 27.8496 26.705 27.1872 26.2094C26.526 25.7126 25.5552 25.3694 24.4332 25.3694C24.1149 25.3694 23.8097 25.243 23.5847 25.0179C23.3596 24.7929 23.2332 24.4877 23.2332 24.1694C23.2332 23.8511 23.3596 23.5459 23.5847 23.3209C23.8097 23.0958 24.1149 22.9694 24.4332 22.9694C26.0256 22.9694 27.5124 23.4518 28.6284 24.2894C29.7444 25.127 30.5472 26.375 30.5472 27.8546C30.5472 29.3342 29.7444 30.5834 28.6272 31.4198C27.5112 32.2574 26.0256 32.7398 24.4332 32.7398C21.9708 32.7398 19.6404 31.5602 18.7152 29.5946C18.5795 29.3067 18.5636 28.9767 18.6712 28.6772C18.7788 28.3777 19.0009 28.1331 19.2888 27.9974C19.5767 27.8617 19.9067 27.8458 20.2062 27.9534C20.5057 28.061 20.7503 28.2831 20.886 28.571C21.3084 29.4686 22.6188 30.3398 24.4332 30.3398C25.5564 30.3398 26.526 29.9966 27.1884 29.4998ZM24.6 13.2002C24.9183 13.2002 25.2235 13.3266 25.4485 13.5517C25.6736 13.7767 25.8 14.0819 25.8 14.4002V15.6002C25.8 15.9185 25.6736 16.2237 25.4485 16.4487C25.2235 16.6738 24.9183 16.8002 24.6 16.8002C24.2817 16.8002 23.9765 16.6738 23.7515 16.4487C23.5264 16.2237 23.4 15.9185 23.4 15.6002V14.4002C23.4 14.0819 23.5264 13.7767 23.7515 13.5517C23.9765 13.3266 24.2817 13.2002 24.6 13.2002Z" fill="white"/>
<path fill-rule="evenodd" clip-rule="evenodd" d="M24.6004 31.2002C24.9187 31.2002 25.2239 31.3266 25.4489 31.5517C25.674 31.7767 25.8004 32.0819 25.8004 32.4002V33.6002C25.8004 33.9185 25.674 34.2237 25.4489 34.4487C25.2239 34.6738 24.9187 34.8002 24.6004 34.8002C24.2821 34.8002 23.9769 34.6738 23.7519 34.4487C23.5268 34.2237 23.4004 33.9185 23.4004 33.6002V32.4002C23.4004 32.0819 23.5268 31.7767 23.7519 31.5517C23.9769 31.3266 24.2821 31.2002 24.6004 31.2002Z" fill="white"/>
</g>
<path fill-rule="evenodd" clip-rule="evenodd" d="M20.5162 18.3602C19.741 18.941 19.3162 19.6982 19.3162 20.4842C19.3162 21.2714 19.741 22.0286 20.5162 22.6106C21.2914 23.1926 22.3906 23.5706 23.6302 23.5706C23.7893 23.5706 23.942 23.6338 24.0545 23.7463C24.167 23.8589 24.2302 24.0115 24.2302 24.1706C24.2302 24.3297 24.167 24.4823 24.0545 24.5949C23.942 24.7074 23.7893 24.7706 23.6302 24.7706C22.1566 24.7706 20.7982 24.323 19.7962 23.5706C18.793 22.8182 18.1162 21.7346 18.1162 20.4854C18.1162 19.2374 18.793 18.1514 19.7962 17.399C20.7994 16.6478 22.1566 16.2002 23.6302 16.2002C25.9318 16.2002 28.0066 17.303 28.807 19.001C28.8748 19.145 28.8826 19.3101 28.8287 19.4598C28.7748 19.6096 28.6636 19.7318 28.5196 19.7996C28.3756 19.8674 28.2106 19.8752 28.0608 19.8213C27.911 19.7674 27.7888 19.6562 27.721 19.5122C27.1726 18.3482 25.6078 17.4002 23.6302 17.4002C22.3906 17.4002 21.2914 17.7782 20.5162 18.3602Z" fill="white"/>
<path fill-rule="evenodd" clip-rule="evenodd" d="M26.3479 29.9798C27.1232 29.399 27.5468 28.6406 27.5468 27.8558C27.5468 27.0686 27.1232 26.3114 26.3468 25.7294C25.5716 25.1474 24.4724 24.7694 23.234 24.7694C23.0748 24.7694 22.9222 24.7062 22.8097 24.5937C22.6972 24.4811 22.634 24.3285 22.634 24.1694C22.634 24.0103 22.6972 23.8577 22.8097 23.7451C22.9222 23.6326 23.0748 23.5694 23.234 23.5694C24.7076 23.5694 26.066 24.017 27.068 24.7694C28.07 25.5218 28.7468 26.6054 28.7468 27.8546C28.7468 29.1026 28.07 30.1886 27.0668 30.9398C26.0648 31.6922 24.7076 32.1398 23.234 32.1398C20.9324 32.1398 18.8576 31.037 18.0572 29.339C17.9894 29.195 17.9816 29.0299 18.0355 28.8802C18.0894 28.7304 18.2005 28.6082 18.3446 28.5404C18.4886 28.4726 18.6536 28.4648 18.8034 28.5187C18.9531 28.5726 19.0754 28.6838 19.1432 28.8278C19.6916 29.9918 21.2552 30.9398 23.234 30.9398C24.4724 30.9398 25.5716 30.5618 26.3479 29.9798ZM22.7996 13.2002C22.9587 13.2002 23.1113 13.2634 23.2238 13.3759C23.3363 13.4885 23.3996 13.6411 23.3996 13.8002V16.2002C23.3996 16.3593 23.3363 16.5119 23.2238 16.6245C23.1113 16.737 22.9587 16.8002 22.7996 16.8002C22.6404 16.8002 22.4878 16.737 22.3753 16.6245C22.2628 16.5119 22.1996 16.3593 22.1996 16.2002V13.8002C22.1996 13.6411 22.2628 13.4885 22.3753 13.3759C22.4878 13.2634 22.6404 13.2002 22.7996 13.2002Z" fill="white"/>
<path fill-rule="evenodd" clip-rule="evenodd" d="M22.7992 31.2002C22.9583 31.2002 23.111 31.2634 23.2235 31.3759C23.336 31.4885 23.3992 31.6411 23.3992 31.8002V34.2002C23.3992 34.3593 23.336 34.5119 23.2235 34.6245C23.111 34.737 22.9583 34.8002 22.7992 34.8002C22.6401 34.8002 22.4875 34.737 22.375 34.6245C22.2624 34.5119 22.1992 34.3593 22.1992 34.2002V31.8002C22.1992 31.6411 22.2624 31.4885 22.375 31.3759C22.4875 31.2634 22.6401 31.2002 22.7992 31.2002Z" fill="white"/>
<defs>
<linearGradient id="paint0_linear_97_4935" x1="1.33043" y1="13.5738" x2="36.665" y2="13.9709" gradientUnits="userSpaceOnUse">
<stop stop-color="#153A19"/>
<stop offset="1" stop-color="#00771A"/>
</linearGradient>
</defs>
</svg>
