<svg width="48" height="48" viewBox="0 0 48 48" fill="none" xmlns="http://www.w3.org/2000/svg">
<rect width="48" height="48" rx="6" fill="url(#paint0_linear_97_4918)" fill-opacity="0.7"/>
<g clip-path="url(#clip0_97_4918)">
<path opacity="0.2" d="M26.6246 23.9998H31.2002C31.3228 23.9998 31.4425 24.0374 31.5432 24.1075C31.6438 24.1776 31.7206 24.2769 31.7631 24.3919C31.8055 24.507 31.8118 24.6323 31.7808 24.751C31.7499 24.8697 31.6834 24.9761 31.5902 25.0558L25.6406 30.145L19.6118 35.8366C19.1438 36.2782 18.4034 35.773 18.6434 35.1766L22.169 26.3998H19.2002C19.1008 26.3999 19.003 26.3753 18.9155 26.3283C18.828 26.2812 18.7536 26.2132 18.6989 26.1303C18.6441 26.0474 18.6109 25.9522 18.602 25.8532C18.5932 25.7543 18.609 25.6547 18.6482 25.5634L22.2482 17.1634C22.2945 17.0554 22.3714 16.9634 22.4696 16.8987C22.5677 16.8341 22.6827 16.7997 22.8002 16.7998H28.8002C28.8995 16.7997 28.9973 16.8243 29.0848 16.8713C29.1723 16.9184 29.2467 16.9864 29.3015 17.0693C29.3562 17.1522 29.3895 17.2474 29.3983 17.3464C29.4072 17.4453 29.3913 17.5449 29.3522 17.6362L26.6246 23.9998Z" fill="white"/>
<path fill-rule="evenodd" clip-rule="evenodd" d="M30 22.2H25.4244L28.152 15.8364C28.1911 15.7451 28.207 15.6455 28.1981 15.5466C28.1893 15.4476 28.156 15.3524 28.1013 15.2695C28.0466 15.1866 27.9721 15.1186 27.8846 15.0715C27.7971 15.0245 27.6993 14.9999 27.6 15H21.6C21.4825 14.9999 21.3675 15.0343 21.2694 15.0989C21.1713 15.1636 21.0943 15.2556 21.048 15.3636L17.448 23.7636C17.4088 23.8549 17.393 23.9545 17.4018 24.0534C17.4107 24.1524 17.4439 24.2476 17.4987 24.3305C17.5534 24.4134 17.6278 24.4814 17.7153 24.5285C17.8028 24.5755 17.9006 24.6001 18 24.6H20.9688L17.4432 33.3768C17.2032 33.9732 17.9436 34.4784 18.4116 34.0368L24.4404 28.3452L30.39 23.256C30.4832 23.1763 30.5497 23.0699 30.5806 22.9512C30.6116 22.8325 30.6053 22.7072 30.5629 22.5921C30.5204 22.4771 30.4436 22.3778 30.343 22.3077C30.2423 22.2376 30.1226 22.2 30 22.2ZM24.5148 23.4H28.3752L23.6376 27.4536L19.5756 31.2876L22.4136 24.2232C22.4501 24.1322 22.4637 24.0336 22.4532 23.9361C22.4428 23.8385 22.4086 23.7451 22.3536 23.6638C22.2987 23.5826 22.2246 23.5161 22.138 23.4701C22.0514 23.4241 21.9548 23.4 21.8568 23.4H18.9096L21.996 16.2H26.6904L23.9628 22.5636C23.9236 22.6549 23.9078 22.7545 23.9166 22.8534C23.9255 22.9524 23.9587 23.0476 24.0135 23.1305C24.0682 23.2134 24.1426 23.2814 24.2301 23.3285C24.3176 23.3755 24.4154 23.4001 24.5148 23.4Z" fill="white"/>
</g>
<defs>
<linearGradient id="paint0_linear_97_4918" x1="1.33043" y1="13.5738" x2="36.665" y2="13.9709" gradientUnits="userSpaceOnUse">
<stop stop-color="#153A19"/>
<stop offset="1" stop-color="#00771A"/>
</linearGradient>
<clipPath id="clip0_97_4918">
<rect width="24" height="24" fill="white" transform="translate(12 12)"/>
</clipPath>
</defs>
</svg>
