<svg width="155" height="20" viewBox="0 0 155 20" fill="none" xmlns="http://www.w3.org/2000/svg">
<path fill-rule="evenodd" clip-rule="evenodd" d="M141 0H149C152.314 0 155 2.68629 155 6V14C155 17.3137 152.314 20 149 20H141C137.686 20 135 17.3137 135 14V6C135 2.68629 137.686 0 141 0ZM151 3C151.5 3 152 3.5 152 4C152 4.5 151.5 5 151 5C150.5 5 150 4.5 150 4C150 3.5 150.5 3 151 3ZM150 10C150 7.2425 147.757 5 145 5C142.243 5 140 7.2425 140 10C140 12.7575 142.243 15 145 15C147.757 15 150 12.7575 150 10ZM145 7C143.343 7 142 8.34315 142 10C142 11.6569 143.343 13 145 13C146.657 13 148 11.6569 148 10C148 8.34315 146.657 7 145 7Z" fill="#F5F9FC"/>
<path fill-rule="evenodd" clip-rule="evenodd" d="M108 0H92C90.8954 0 90 0.89543 90 2V18C90 19.1046 90.8954 20 92 20H108C109.105 20 110 19.1046 110 18V2C110 0.89543 109.105 0 108 0ZM94 4.56404C94 5.42749 94.7003 6.12899 95.5664 6.12899C96.4297 6.12899 97.1318 5.42749 97.1318 4.56404C97.1318 3.7015 96.4297 3 95.5664 3C94.7012 3 94 3.70059 94 4.56404ZM94.2504 16H96.937V7.36366H94.2504V16ZM107 16H104.315V11.8001C104.315 10.7984 104.297 9.51001 102.919 9.51001C101.521 9.51001 101.306 10.6009 101.306 11.7273V16H98.6217V7.36366H101.199V8.54374H101.235C101.594 7.86499 102.47 7.14894 103.777 7.14894C106.497 7.14894 107 8.93771 107 11.2633V16Z" fill="#F5F9FC"/>
<path fill-rule="evenodd" clip-rule="evenodd" d="M18 0H2C0.89543 0 0 0.89543 0 2V18C0 19.1046 0.89543 20 2 20H10V12.4706H7V9.64706H10V8.13082C10 5.26024 11.4897 4 13.925 4C15.0684 4 15.6836 4.08142 15.9825 4.12097L16 4.12329V6.82353H14.339C13.3053 6.82353 13 7.35812 13 8.44047V9.64706H15.9741L15.5629 12.4706H13V20H18C19.1046 20 20 19.1046 20 18V2C20 0.89543 19.1046 0 18 0Z" fill="#F5F9FC"/>
<path d="M47.8571 0C46.2813 0 45 1.28125 45 2.85714V17.1429C45 18.7188 46.2813 20 47.8571 20H62.1429C63.7188 20 65 18.7188 65 17.1429V2.85714C65 1.28125 63.7188 0 62.1429 0H47.8571ZM61.1205 3.75L56.4866 9.04464L61.9375 16.25H57.6696L54.3304 11.8795L50.5045 16.25H48.3839L53.3393 10.5848L48.1116 3.75H52.4866L55.5089 7.74554L59 3.75H61.1205ZM59.433 14.9821L51.8482 4.95089H50.5848L58.2545 14.9821H59.4286H59.433Z" fill="white"/>
</svg>
